<svg width="188" height="246" viewBox="0 0 188 246" fill="none" xmlns="http://www.w3.org/2000/svg">
<path fill-rule="evenodd" clip-rule="evenodd" d="M94.3226 6.57401L5.49141 64.7218V180.632L94.3226 238.779L183.155 180.74V64.6136L94.3226 6.57401ZM6.99885 65.5378L94.3234 8.37626L181.647 65.4305V179.923L94.3234 236.977L6.99885 179.816V65.5378Z" fill="#6FCF97"/>
<path fill-rule="evenodd" clip-rule="evenodd" d="M93.9996 0L0 61.6001V184.4L93.9996 246L188 184.515V61.4854L93.9996 0ZM1.50745 62.4156L94.0004 1.80286L186.493 62.3018V183.698L94.0004 244.197L1.50745 183.584V62.4156Z" fill="#6FCF97"/>
<path d="M83.1249 209.105L74.6186 215.355L79.0332 216.11L78.7102 220.851L87.2165 214.816L87.8625 210.721L94.4307 206.011L100.999 210.721L101.645 214.816L110.151 220.851L109.828 216.11L114.243 215.355L105.737 209.105L101.753 209.536L95.6897 205.108L107.998 196.281V199.083L114.243 190.785L104.337 194.125L107.029 194.988L94.4307 204.188L81.8328 194.988L84.5246 194.125L74.6186 190.785L80.8637 199.083V196.281L93.1718 205.108L87.1088 209.536L83.1249 209.105Z" fill="#6FCF97"/>
<path d="M64.6115 203.787L63.9588 201.777L63.3061 203.787H61.1938L62.9027 205.03L62.25 207.04L63.9588 205.798L65.6676 207.04L65.0149 205.03L66.7237 203.787H64.6115Z" fill="#6FCF97"/>
<path d="M80.332 203.787L79.6793 201.777L79.0266 203.787H76.9143L78.6232 205.03L77.9705 207.04L79.6793 205.798L81.3881 207.04L80.7354 205.03L82.4442 203.787H80.332Z" fill="#6FCF97"/>
<path d="M71.9267 201.777L72.5794 203.787H74.6916L72.9828 205.03L73.6355 207.04L71.9267 205.798L70.2179 207.04L70.8706 205.03L69.1618 203.787H71.274L71.9267 201.777Z" fill="#6FCF97"/>
<path d="M109.404 203.787L108.751 201.777L108.099 203.787H105.987L107.695 205.03L107.043 207.04L108.751 205.798L110.46 207.04L109.808 205.03L111.516 203.787H109.404Z" fill="#6FCF97"/>
<path d="M124.472 201.777L125.125 203.787H127.237L125.528 205.03L126.181 207.04L124.472 205.798L122.763 207.04L123.416 205.03L121.707 203.787H123.819L124.472 201.777Z" fill="#6FCF97"/>
<path d="M117.372 203.787L116.719 201.777L116.067 203.787H113.954L115.663 205.03L115.011 207.04L116.719 205.798L118.428 207.04L117.775 205.03L119.484 203.787H117.372Z" fill="#6FCF97"/>
<path d="M17.7663 163.197V161.688H24.4422V163.197H23.3654V173.111H27.0263V163.197H25.9496V161.688H32.6254V163.197H31.764V183.672H32.6254V185.181H25.9496V183.672H27.0263V173.758H23.3654V183.672H24.4422V185.181H17.7663V183.672H18.6277V163.197H17.7663Z" fill="#6FCF97"/>
<path fill-rule="evenodd" clip-rule="evenodd" d="M41.1317 161.041C37.6232 161.041 34.7789 163.888 34.7789 167.399V179.254C34.7789 182.765 37.6232 185.612 41.1317 185.612C44.6403 185.612 47.4845 182.765 47.4845 179.254V167.399C47.4845 163.888 44.6403 161.041 41.1317 161.041ZM41.4548 162.981C40.0275 162.981 38.8706 164.139 38.8706 165.567V181.517C38.8706 182.945 40.0275 184.103 41.4548 184.103C42.882 184.103 44.0389 182.945 44.0389 181.517V165.567C44.0389 164.139 42.882 162.981 41.4548 162.981Z" fill="#6FCF97"/>
<path fill-rule="evenodd" clip-rule="evenodd" d="M56.8522 161.041C53.3437 161.041 50.4994 163.888 50.4994 167.399V179.254C50.4994 182.765 53.3437 185.612 56.8522 185.612C60.3608 185.612 63.205 182.765 63.205 179.254V167.399C63.205 163.888 60.3608 161.041 56.8522 161.041ZM57.1753 162.981C55.7481 162.981 54.5911 164.139 54.5911 165.567V181.517C54.5911 182.945 55.7481 184.103 57.1753 184.103C58.6025 184.103 59.7595 182.945 59.7595 181.517V165.567C59.7595 164.139 58.6025 162.981 57.1753 162.981Z" fill="#6FCF97"/>
<path d="M65.7892 163.197V161.688H72.4651V163.197H71.3883V171.336H71.6037L76.9874 163.197H75.9107V161.688H80.8637V163.197H78.4949L74.2955 169.555L80.0023 183.672H81.9404L87.5395 160.934L86.3551 169.878L84.74 177.422H88.5086L86.3551 169.878L87.5395 160.934H87.9702L94.9691 183.672H95.9381V185.181H89.2623V183.672H90.3391L88.6163 177.853H84.6323L83.4479 183.672H84.5246V185.181H74.4032V183.672H75.2646L71.9267 174.189L71.6037 173.542H71.3883V183.672H72.4651V185.181H65.7892V183.672H66.866V163.197H65.7892Z" fill="#6FCF97"/>
<path d="M103.26 161.688V163.197H102.183V173.111H105.629V163.197H104.767V161.688H111.443V163.197H110.367V183.672H111.443V185.181H104.767V183.672H105.629V173.758H102.183V183.672H103.26V185.181H96.3688V183.672H97.4456V163.197H96.3688V161.688H103.26Z" fill="#6FCF97"/>
<path d="M126.195 161.041C122.686 161.041 119.842 163.888 119.842 167.399V179.254C119.842 182.765 122.686 185.612 126.195 185.612C128.393 185.612 130.071 184.211 130.179 183.564L131.471 179.146H130.179V180.547L130.071 180.978L129.856 181.517C129.21 182.918 127.945 184.103 126.518 184.103C125.091 184.103 123.934 182.945 123.934 181.517V165.567C123.934 164.139 125.091 162.981 126.518 162.981C127.945 162.981 128.241 162.873 129.533 164.49L129.963 165.244L130.179 165.783V163.197C128.887 161.58 128.393 161.041 126.195 161.041Z" fill="#6FCF97"/>
<path d="M130.179 179.146H131.471V184.965H130.179V179.146Z" fill="#6FCF97"/>
<path d="M130.179 161.472H131.471V167.507H130.179V161.472Z" fill="#6FCF97"/>
<path d="M139.869 161.688H132.978V163.197H134.055V183.672H132.978V185.181H142.131L142.669 184.965L143.53 184.534V185.181H145.684V183.672H144.822V179.146H143.53V181.301L142.884 182.594L142.238 183.241L141.377 183.672H138.793V163.197H139.869V161.688Z" fill="#6FCF97"/>
<path fill-rule="evenodd" clip-rule="evenodd" d="M145.469 185.181H148.699V183.672H147.622L148.806 177.853H152.79L154.513 183.672H153.436V185.181H160.112V183.672H159.143L152.144 160.934H151.714L146.115 183.672H145.469V185.181ZM148.914 177.422L150.529 169.878L152.683 177.422H148.914Z" fill="#6FCF97"/>
<path d="M162.05 163.197H160.543V161.688H165.065L171.31 175.59V163.197H170.234V161.688H174.325V163.197H173.249V185.181H171.956L163.558 167.076V183.672H165.065V185.181H160.112V183.672H162.05V163.197Z" fill="#6FCF97"/>
<path d="M87.0393 221.552C87.0393 221.369 87.0809 221.2 87.1642 221.046C87.2516 220.888 87.3577 220.748 87.4827 220.627C87.6076 220.502 87.7783 220.35 87.9948 220.171C88.128 220.063 88.1988 220.004 88.2071 219.996C88.4777 219.767 88.688 219.542 88.8378 219.321C88.9877 219.1 89.0627 218.846 89.0627 218.558C89.0627 218.358 88.994 218.198 88.8566 218.077C88.7234 217.952 88.5464 217.89 88.3258 217.89C88.1217 217.89 87.9344 217.942 87.7637 218.046C87.5971 218.146 87.441 218.294 87.2953 218.49L86.9518 218.196C87.1184 217.967 87.3224 217.788 87.5638 217.658C87.8095 217.529 88.0635 217.465 88.3258 217.465C88.6963 217.465 88.9919 217.565 89.2126 217.765C89.4332 217.961 89.5435 218.225 89.5435 218.558C89.5435 218.908 89.4436 219.221 89.2438 219.496C89.0439 219.771 88.7691 220.056 88.4194 220.352C88.332 220.427 88.2904 220.463 88.2945 220.459C88.0364 220.671 87.8449 220.846 87.72 220.984C87.5951 221.121 87.5326 221.259 87.5326 221.396H89.5998V221.821H87.0393V221.552Z" fill="#6FCF97"/>
<path d="M92.4227 221.921C92.1438 221.921 91.8877 221.825 91.6545 221.634C91.4214 221.442 91.2382 221.177 91.105 220.84C90.9717 220.498 90.9051 220.115 90.9051 219.69C90.9051 219.265 90.9717 218.883 91.105 218.546C91.2382 218.204 91.4193 217.94 91.6483 217.752C91.8815 217.56 92.1375 217.465 92.4165 217.465C92.6954 217.465 92.9494 217.56 93.1784 217.752C93.4115 217.94 93.5947 218.204 93.7279 218.546C93.8612 218.883 93.9278 219.265 93.9278 219.69C93.9278 220.115 93.8612 220.498 93.7279 220.84C93.5947 221.177 93.4136 221.442 93.1846 221.634C92.9556 221.825 92.7017 221.921 92.4227 221.921ZM92.4165 221.509C92.6163 221.509 92.7932 221.434 92.9473 221.284C93.1013 221.129 93.2221 220.915 93.3095 220.64C93.3969 220.361 93.4407 220.044 93.4407 219.69C93.4407 219.336 93.3969 219.021 93.3095 218.746C93.2221 218.471 93.1013 218.258 92.9473 218.108C92.7932 217.954 92.6163 217.877 92.4165 217.877C92.2166 217.877 92.0376 217.954 91.8794 218.108C91.7253 218.258 91.6046 218.471 91.5172 218.746C91.4297 219.021 91.386 219.336 91.386 219.69C91.386 220.044 91.4297 220.361 91.5172 220.64C91.6046 220.915 91.7253 221.129 91.8794 221.284C92.0376 221.434 92.2166 221.509 92.4165 221.509Z" fill="#6FCF97"/>
<path d="M96.2854 217.558H96.71V221.821H96.2854V218.258L95.2737 219.258L95.0363 219.021L96.2854 217.558Z" fill="#6FCF97"/>
<path d="M98.4043 217.558H100.977L99.4535 221.821H99.0226L100.397 217.996H98.4043V217.558Z" fill="#6FCF97"/>
<path d="M87.68 194.888C87.68 194.622 87.7944 194.405 88.0232 194.237C88.252 194.068 88.5162 193.984 88.8156 193.984C89.0461 193.984 89.2758 194.037 89.5046 194.143C89.5803 194.177 89.6661 194.231 89.762 194.305L89.5853 194.686C89.5096 194.627 89.4306 194.576 89.3481 194.532C89.1546 194.429 88.9771 194.377 88.8156 194.375C88.6407 194.375 88.485 194.421 88.3488 194.512C88.2125 194.601 88.1443 194.727 88.1443 194.888C88.1443 194.954 88.157 195.014 88.1822 195.07C88.2091 195.126 88.2545 195.178 88.3185 195.227L88.4649 195.34C88.4985 195.366 88.5624 195.403 88.6566 195.451C88.7525 195.5 88.8055 195.528 88.8156 195.535L89.0554 195.666C89.1715 195.73 89.2505 195.776 89.2926 195.805L89.4819 195.931C89.5677 195.989 89.6282 196.041 89.6636 196.088C89.6989 196.133 89.7384 196.19 89.7822 196.257C89.8276 196.324 89.8587 196.398 89.8756 196.477C89.8924 196.556 89.9008 196.644 89.9008 196.74C89.9008 197.029 89.7805 197.272 89.5399 197.467C89.2993 197.662 89.0234 197.76 88.7122 197.76C88.4531 197.76 88.2032 197.688 87.9626 197.543C87.8567 197.48 87.7624 197.406 87.68 197.32L87.8592 196.932C87.9551 197.017 88.0501 197.09 88.1443 197.149C88.3647 197.294 88.554 197.366 88.7122 197.366C88.9124 197.366 89.0831 197.308 89.2245 197.192C89.3658 197.074 89.4364 196.923 89.4364 196.74C89.4364 196.578 89.3759 196.433 89.2547 196.305C89.1353 196.177 88.9889 196.069 88.8156 195.982L88.2983 195.712C88.1267 195.619 87.9803 195.504 87.8592 195.366C87.7397 195.226 87.68 195.067 87.68 194.888Z" fill="#6FCF97"/>
<path d="M90.5797 197.682V194.06H91.044V197.682H90.5797Z" fill="#6FCF97"/>
<path d="M91.8818 197.682V194.06H92.3462L94.1607 196.906V194.06H94.625V197.682H94.1607L92.3462 194.833V197.682H91.8818Z" fill="#6FCF97"/>
<path d="M95.7859 197.204C95.4158 196.832 95.2307 196.388 95.2307 195.871C95.2307 195.354 95.4158 194.91 95.7859 194.54C96.156 194.169 96.5993 193.984 97.1158 193.984C97.5364 193.984 97.9192 194.114 98.2641 194.375L97.9638 194.676C97.7013 194.476 97.4187 194.375 97.1158 194.375C96.7238 194.375 96.389 194.522 96.1114 194.815C95.8338 195.108 95.695 195.46 95.695 195.871C95.695 196.282 95.8338 196.633 96.1114 196.926C96.389 197.219 96.7238 197.366 97.1158 197.366C97.4254 197.366 97.7081 197.267 97.9638 197.07L98.2641 197.371C97.9158 197.63 97.5331 197.76 97.1158 197.76C96.5993 197.76 96.156 197.575 95.7859 197.204Z" fill="#6FCF97"/>
<path d="M98.9328 197.682V194.06H101.239V194.391H99.3972V195.54H100.929V195.871H99.3972V197.351H101.239V197.682H98.9328Z" fill="#6FCF97"/>
<path d="M90.1237 73.6433C90.1237 73.6433 90.1873 71.847 90.4467 70.7336C90.7217 69.5536 90.8736 68.9074 91.4158 67.824C92.0269 66.6029 92.4414 65.9093 93.2463 64.8065C93.8119 64.0316 93.8696 63.9707 94.8614 62.8667C95.1844 62.5072 95.1844 62.4357 96.1535 61.5735C96.7095 61.0789 97.1746 60.6859 97.5533 60.3881C99.0607 59.2027 99.0607 59.2027 99.0607 59.2027C99.0607 59.2027 100.017 58.3475 100.568 57.8017C101.162 57.2143 101.603 56.6915 102.076 56.1852C102.377 55.862 103.368 54.7843 103.368 54.7843L104.444 53.3833L105.414 51.7669L106.167 50.3659C106.167 50.3659 106.992 48.8442 107.244 47.7795C107.478 46.7934 107.449 46.2066 107.459 45.1931C107.468 44.3504 107.53 43.8615 107.352 43.0378C107.18 42.2435 106.598 41.098 106.598 41.098C106.598 41.098 105.813 39.9233 105.198 39.266C104.73 38.7661 103.906 38.0806 103.906 38.0806C103.906 38.0806 102.875 37.1386 102.183 36.5719C101.487 36.0014 101.04 35.7528 100.353 35.1709C99.6489 34.5746 99.3085 34.2873 98.63 33.6622C98.1701 33.2385 97.8861 32.9207 97.4456 32.4768C96.8574 31.8841 96.5049 31.558 96.0458 30.8603C95.6321 30.2315 95.4595 29.8367 95.1844 29.1361C94.9119 28.442 94.7722 28.039 94.646 27.304C94.5248 26.5977 94.5125 26.1882 94.5384 25.472C94.5691 24.6215 94.6568 24.1428 94.8614 23.3167C94.967 22.8902 95.1844 22.239 95.1844 22.239C95.1844 22.239 95.2751 23.7541 95.3998 24.7177C95.4708 25.2666 95.4986 25.5775 95.6151 26.1186C95.7441 26.7176 95.8515 27.057 96.0458 27.6273C96.3069 28.3935 96.5322 28.8098 97.0149 29.4594C97.4763 30.0802 98.4147 30.8603 98.4147 30.8603C98.4147 30.8603 99.1131 31.482 99.5991 31.8302C100.273 32.3133 101.43 32.9079 101.43 32.9079L103.798 34.201C103.798 34.201 104.881 34.8798 105.521 35.3865C106.385 36.0694 106.849 36.4918 107.567 37.3262C108.176 38.0341 108.514 38.4487 108.967 39.266C109.47 40.1752 109.712 40.7297 109.936 41.7446C110.199 42.9371 110.127 43.6515 110.044 44.8699C109.97 45.9328 109.929 46.5467 109.613 47.564C109.294 48.5884 108.428 50.0426 108.428 50.0426L107.459 51.8746L106.383 53.4911L105.306 54.7843C105.306 54.7843 104.357 55.8705 103.691 56.5085C103.088 57.086 102.076 57.9095 102.076 57.9095C102.076 57.9095 100.76 58.9569 99.9221 59.6338C99.2475 60.1786 98.8532 60.4651 98.1993 61.0347C97.6382 61.5236 97.3096 61.7859 96.7995 62.3279C95.3111 63.9094 93.8923 67.0696 93.8923 67.0696C93.8923 67.0696 93.3369 68.216 93.2463 69.0094C92.8156 72.7812 92.6002 73.9666 93.5693 78.4928C93.8924 80.0019 94.4957 80.789 95.3998 82.1568C96.3038 83.5246 98.307 85.6053 98.307 85.6053C98.307 85.6053 95.0723 83.3931 93.4616 81.5102C92.0962 79.914 91.171 78.9927 90.5544 76.984C90.1684 75.7266 90.1237 73.6433 90.1237 73.6433Z" fill="#6FCF97"/>
<path d="M94.323 70.7336C94.5508 69.9942 94.7345 69.5954 95.0768 68.9016C95.444 68.1573 95.6927 67.7597 96.1535 67.0696C96.4713 66.5937 97.0149 65.8842 97.0149 65.8842C97.0149 65.8842 97.5963 65.1111 97.984 64.6987C98.5138 64.1353 98.8062 63.8749 99.3838 63.4055C99.9454 62.9492 100.303 62.7487 100.891 62.3279C101.186 62.1175 101.34 61.984 101.645 61.7891C102.01 61.5557 102.614 61.2502 102.614 61.2502C102.614 61.2502 103.222 61.002 103.691 60.8192C103.906 60.7351 104.229 60.6733 104.767 60.4959C105.287 60.3248 106.06 59.957 106.06 59.957L107.136 59.4182C107.136 59.4182 107.677 59.1134 107.998 58.8794C108.455 58.5456 108.749 58.3727 109.074 57.9095C109.291 57.6015 109.38 57.4023 109.505 57.0474C109.648 56.6427 109.657 56.3942 109.721 55.9697C109.844 55.1361 109.922 54.6519 109.828 53.8144C109.751 53.1247 109.867 52.7359 109.613 52.0901C109.44 51.6524 109.294 51.4285 109.074 51.0125C108.872 50.6294 108.761 50.4128 108.536 50.0426C108.3 49.6537 108.205 49.4013 107.89 49.0727C107.599 48.7689 107.472 48.5724 107.136 48.3184C106.587 47.9017 106.245 47.6592 105.629 47.3485C105.154 47.1088 104.835 47.1038 104.337 46.9174C103.825 46.7258 103.545 46.598 103.045 46.3786C102.493 46.1369 101.645 45.732 101.645 45.732C101.645 45.732 100.817 45.2602 100.353 44.8698C99.9885 44.5636 99.712 44.3524 99.3838 44.0077C98.9934 43.5979 98.8039 43.4212 98.5224 42.9301C98.2577 42.4683 98.178 42.1621 98.0917 41.6369C98.0029 41.097 97.9777 40.771 98.0917 40.2359C98.2288 39.5917 98.8454 38.7272 98.8454 38.7272C98.8454 38.7272 98.8592 39.5875 98.953 40.1282C99.0578 40.7319 99.0979 41.095 99.3838 41.6369C99.5253 41.9052 99.6241 42.0472 99.8144 42.2835C100.227 42.7952 100.56 42.997 101.107 43.3611C101.733 43.7781 102.131 43.9436 102.829 44.2233C103.484 44.4854 103.885 44.5335 104.552 44.7621C105.018 44.9217 105.278 45.013 105.737 45.1931C106.42 45.4619 106.818 45.5896 107.459 45.9475C107.989 46.2431 108.287 46.4192 108.751 46.8096C109.116 47.1159 109.613 47.6718 109.613 47.6718C109.613 47.6718 110.182 48.2278 110.474 48.6416C110.778 49.0723 110.885 49.3551 111.12 49.8271C111.347 50.2822 111.473 50.5393 111.659 51.0125C111.917 51.669 112.013 52.0354 112.089 52.7367C112.158 53.3657 112.172 53.726 112.089 54.3532C112.005 54.9915 111.968 55.3584 111.766 55.9697C111.578 56.5419 111.426 56.8517 111.12 57.3707C110.83 57.8636 110.642 58.1311 110.259 58.5561C109.88 58.9765 109.643 59.1975 109.182 59.526C108.676 59.8865 107.782 60.2803 107.782 60.2803C107.782 60.2803 106.996 60.5472 106.49 60.7114C105.82 60.9291 105.442 61.0446 104.767 61.2502C104.348 61.3783 103.691 61.5735 103.691 61.5735C103.691 61.5735 103.085 61.8062 102.722 62.0046C102.322 62.2225 102.114 62.3744 101.753 62.6512C101.351 62.9593 100.784 63.5133 100.784 63.5133C100.784 63.5133 99.7938 64.3695 99.2761 65.022C98.8989 65.4974 98.4147 66.3152 98.4147 66.3152C98.4147 66.3152 97.9162 67.0825 97.661 67.6084C97.347 68.2553 97.2608 68.6569 97.0149 69.3327C96.7555 70.0455 96.5384 70.4252 96.3689 71.1647C96.1892 71.9484 96.0171 72.3989 95.9382 73.2122C95.869 73.9243 95.9382 75.0442 95.9382 75.0442C95.9382 75.0442 96.0664 76.8274 96.2612 77.9539C96.4976 79.3218 97.1226 81.4024 97.1226 81.4024C97.1226 81.4024 96.1287 80.6906 95.6151 80.1092C95.1748 79.6107 94.9572 79.2964 94.6461 78.7083C94.3098 78.0727 94.1697 77.6829 94 76.984C93.8202 76.2434 93.8109 75.806 93.7847 75.0442C93.7557 74.202 93.789 73.7253 93.8923 72.8889C93.9976 72.037 94.0704 71.5539 94.323 70.7336Z" fill="#6FCF97"/>
<path d="M104.444 95.6275C104.444 95.6275 106.249 94.0058 107.675 93.9033C107.926 93.8852 108.321 93.9033 108.321 93.9033L110.151 92.6101L110.044 92.5023L110.582 91.9635L111.443 92.9334L110.905 93.3644L110.797 93.2567L108.967 94.6576C108.967 94.6576 108.909 94.9224 108.859 95.0887C108.425 96.5503 106.383 98.1061 106.383 98.1061L104.444 95.6275Z" fill="#6FCF97"/>
<path d="M32.1947 78.8161C32.1947 78.8161 34.3979 78.0482 35.8557 77.7384C37.6771 77.3513 38.7312 77.1996 40.5933 77.1996C42.4554 77.1996 43.506 77.3684 45.331 77.7384C46.6106 77.9978 48.5613 78.6005 48.5613 78.6005L47.9152 81.7257C47.9152 81.7257 47.5882 82.2519 47.3768 82.5879C47.0847 83.0522 46.9667 83.3457 46.6231 83.7733C46.2877 84.1907 45.654 84.7432 45.654 84.7432V85.7131C45.654 85.7131 46.7362 86.2562 47.0538 86.8985C47.4082 87.6151 47.0538 88.946 47.0538 88.946C47.0538 88.946 49.2364 89.0188 50.6071 89.2693C52.4257 89.6018 53.4052 90.0027 55.1294 90.6703C56.0254 91.0172 57.2826 90.6847 57.3906 91.6402C57.4459 92.1296 57.3542 92.5308 56.9599 92.8256C56.6821 93.0333 56.0985 93.0411 56.0985 93.0411C56.0985 93.0411 55.9265 94.2238 55.5601 94.8731C54.9724 95.9148 54.2333 96.2269 53.1913 96.8129C52.4016 97.257 51.0378 97.6751 51.0378 97.6751C51.0378 97.6751 49.7329 97.9817 48.8843 98.1061C46.8452 98.4051 43.6082 98.2139 43.6082 98.2139V98.7527C43.6082 98.7527 44.4649 99.3088 44.685 99.8304C44.9467 100.451 44.3162 100.934 44.5773 101.555C44.8782 102.27 45.5712 102.266 46.0848 102.848C46.5251 103.346 46.7704 103.647 47.0538 104.249C47.2977 104.767 47.4044 104.902 47.5922 105.434C47.8063 106.041 47.898 106.545 48.0229 107.158C48.1993 108.024 48.1843 108.553 48.0229 109.422C47.9014 110.076 47.829 110.524 47.5922 111.146C47.3641 111.745 47.1722 112 46.8385 112.547C46.4963 113.108 46.261 113.413 45.7617 113.84C45.345 114.196 44.5773 114.594 44.5773 114.594C44.5773 114.594 44.7129 115.337 44.5773 115.78C44.4696 116.131 44.4556 116.213 44.0389 116.642C43.6859 117.005 42.7906 117.344 42.6392 117.827C42.5511 118.108 42.6392 118.582 42.6392 118.582C42.6392 118.582 43.0587 118.952 43.2852 119.228C43.6562 119.68 43.5007 120.294 44.0389 120.521C44.3876 120.669 44.9003 120.685 44.9003 120.306C44.9003 119.551 44.8534 119.559 45.008 119.12C45.2266 118.501 45.6427 118.314 46.0848 117.827C46.565 117.299 46.8419 117.007 47.3769 116.534C47.6231 116.317 48.1306 115.887 48.1306 115.887C48.1306 115.887 47.9244 115.507 47.9152 115.241C47.9029 114.882 47.883 114.747 48.1306 114.487C48.2996 114.309 48.4238 114.271 48.669 114.271C49.0997 114.271 49.4227 114.487 49.4227 114.487C49.4227 114.487 50.2853 113.775 50.8225 113.301C51.3359 112.848 51.6262 112.596 52.1145 112.116C52.7301 111.511 53.0227 111.12 53.622 110.499C54.2416 109.857 54.6221 109.529 55.2371 108.883C55.7091 108.386 55.9492 108.085 56.4215 107.59C56.996 106.986 57.3217 106.651 57.929 106.081C58.7773 105.284 60.1902 104.141 60.1902 104.141L61.3746 103.063C61.3746 103.063 62.1371 102.375 62.6667 101.986C63.3063 101.516 63.7019 101.304 64.3895 100.908C65.0089 100.551 65.3491 100.331 66.0046 100.046C66.7361 99.7273 67.163 99.5687 67.9427 99.3993C68.687 99.2376 69.1194 99.1747 69.8809 99.1838C70.7312 99.1939 71.2216 99.2566 72.0344 99.5071C72.5568 99.6681 72.8441 99.7885 73.3265 100.046C73.9131 100.359 74.2317 100.571 74.7262 101.016C75.2588 101.495 75.5056 101.826 75.9107 102.417C76.3681 103.084 76.5506 103.509 76.8797 104.249C77.1721 104.906 77.3251 105.282 77.5258 105.973C77.7768 106.837 77.8671 107.341 77.9565 108.236C78.0568 109.241 77.9565 110.822 77.9565 110.822V113.948C77.983 114.664 77.7219 115.15 78.0641 115.78C78.2211 116.068 78.6025 116.426 78.6025 116.426L79.0332 115.995L79.2486 114.918L80.11 118.258L74.6186 118.582C74.6186 118.582 74.8751 117.539 74.9416 116.857C75.0151 116.103 74.9416 115.675 74.9416 114.918C74.9416 113.781 74.97 113.144 74.9416 112.008C74.9184 111.081 74.9714 110.554 74.8339 109.637C74.7249 108.91 74.5975 108.514 74.4032 107.805C74.2167 107.125 74.1922 106.706 73.8648 106.081C73.5992 105.574 73.3781 105.328 73.0034 104.895C72.6918 104.536 72.4983 104.349 72.142 104.033C71.6697 103.615 71.4144 103.345 70.8499 103.063C70.3381 102.808 70.0196 102.686 69.4502 102.632C68.8167 102.572 68.4297 102.621 67.8351 102.848C67.2137 103.085 66.9655 103.416 66.4353 103.818C65.9587 104.179 65.2509 104.788 65.2509 104.788L63.8511 106.081L62.559 107.266L60.8362 108.883L58.8981 110.607L57.2829 111.9C57.2829 111.9 56.1486 112.798 55.4525 113.409C54.5357 114.214 53.6151 115.147 53.1913 115.564C52.7675 115.982 52.1145 116.642 52.1145 116.642C52.1145 116.642 52.3785 116.871 52.4376 117.073C52.4848 117.234 52.6009 117.453 52.5452 117.612C52.4561 117.866 52.3616 118.044 52.1145 118.151C51.9178 118.236 51.6829 118.151 51.4685 118.151C51.2541 118.151 50.8225 117.935 50.8225 117.935L49.5304 119.228L50.3918 122.677L48.4536 123L46.7308 123.647L47.3769 125.371L47.6999 126.664L47.1615 133.022V134.854C47.1615 134.854 48.1016 135.055 48.669 135.285C49.2443 135.519 49.6383 135.622 50.1764 135.932C50.864 136.328 51.175 136.636 51.7915 137.117C52.2626 137.485 52.4533 137.765 52.8683 138.195C53.3062 138.649 53.4898 138.961 53.8373 139.488C54.2109 140.054 54.4394 140.37 54.6987 140.997C54.933 141.563 55.1294 142.506 55.1294 142.506C55.1294 142.506 55.3931 142.376 55.5601 142.29C55.9448 142.091 56.2231 142.058 56.5292 141.751C56.8353 141.445 56.9429 141.196 57.0676 140.781C57.1652 140.456 57.1536 140.258 57.1753 139.919C57.2319 139.033 57.2189 138.505 56.9599 137.656C56.7841 137.08 56.543 136.647 56.2062 136.147C55.8069 135.555 55.5848 135.401 55.0218 134.962C54.5892 134.625 54.3097 134.486 53.8373 134.208C53.3025 133.892 53.0112 133.691 52.4376 133.453C51.6743 133.137 51.2044 133.063 50.3918 132.914C49.6426 132.777 49.1036 132.73 48.3459 132.807C47.8285 132.859 47.1615 133.022 47.1615 133.022L47.6999 126.664C47.6999 126.664 48.8997 126.6 49.638 126.772C50.4447 126.96 50.8133 127.311 51.5762 127.634C52.4104 127.987 52.8505 128.278 53.7297 128.496C54.2262 128.619 54.5134 128.655 55.0218 128.712C56.0665 128.828 56.6627 128.739 57.7136 128.712C58.5974 128.689 59.1018 128.743 59.9748 128.604C60.6596 128.494 61.06 128.446 61.6976 128.173C62.2877 127.92 62.6128 127.732 63.0974 127.311C63.4796 126.978 63.7433 126.799 63.9588 126.341C64.1412 125.952 64.2099 125.691 64.1741 125.263C64.1364 124.811 64.0217 124.543 63.7434 124.185C63.4066 123.752 63.0475 123.68 62.559 123.431C61.8836 123.087 61.4596 122.985 60.7285 122.784C60.1479 122.625 59.8146 122.562 59.2211 122.461C58.5115 122.341 58.1093 122.285 57.3906 122.246C56.7608 122.211 56.4062 122.246 55.7755 122.246C55.2709 122.246 54.9878 122.233 54.4834 122.246C53.7675 122.263 53.3657 122.285 52.6529 122.353C51.765 122.439 50.3918 122.677 50.3918 122.677L49.5304 119.228C49.5304 119.228 50.4499 119.173 51.0378 119.12C51.7964 119.053 52.2172 118.97 52.9759 118.905C53.6476 118.848 54.0249 118.817 54.6987 118.797C55.3292 118.778 55.6835 118.774 56.3139 118.797C56.9037 118.819 57.2345 118.842 57.8213 118.905C58.4126 118.968 58.7425 119.021 59.3288 119.12C59.9629 119.228 60.3152 119.308 60.9439 119.444C61.6616 119.599 62.0835 119.626 62.7743 119.875C63.482 120.13 63.8803 120.306 64.4971 120.737C65.0584 121.129 65.3327 121.412 65.7892 121.922C66.109 122.28 66.2811 122.49 66.543 122.892C66.9025 123.444 67.1158 123.768 67.2967 124.401C67.5165 125.171 67.5132 125.655 67.4044 126.449C67.3084 127.147 67.1784 127.54 66.866 128.173C66.5193 128.874 66.2412 129.242 65.6816 129.789C64.9385 130.515 64.3798 130.792 63.4204 131.19C62.6947 131.491 62.2537 131.581 61.4822 131.729C60.7343 131.873 60.3044 131.901 59.5441 131.945C58.7464 131.99 57.4983 131.945 57.4983 131.945V132.699C57.4983 132.699 58.2124 133.163 58.575 133.561C59.0949 134.132 59.3086 134.485 59.6518 135.178C59.8776 135.633 60.0506 135.982 60.1902 136.471C60.4055 137.225 60.4097 137.254 60.5132 137.764C60.6232 138.306 60.6208 139.165 60.6208 139.165C60.6208 139.165 61.4376 138.68 61.9129 138.303C62.9641 137.469 63.3267 136.757 64.1741 135.716C65.0085 134.692 65.4765 134.114 66.2199 133.022C67.0483 131.805 67.4332 131.07 68.1581 129.789C68.7699 128.708 69.6655 126.987 69.6655 126.987L70.8499 124.724C70.8499 124.724 71.8401 123.152 72.4651 122.138C72.9309 121.382 73.6495 120.198 73.6495 120.198L74.6186 118.582L80.11 118.258L79.2486 114.918C79.2486 114.918 79.4781 114.015 79.7869 113.517C80.1632 112.91 80.4974 112.637 81.079 112.223C81.6155 111.842 81.984 111.734 82.5865 111.469C83.001 111.287 83.6632 111.038 83.6632 111.038C83.6632 111.038 83.4948 110.057 83.4479 109.422C83.389 108.624 83.2258 108.142 83.4479 107.374C83.6523 106.667 83.9019 106.283 84.417 105.757C84.907 105.257 85.25 104.975 85.9244 104.788C86.5322 104.619 86.6781 104.572 87.2165 104.68C87.4931 104.735 87.6126 104.803 87.8625 105.003C88.1722 105.251 88.5219 105.725 88.8316 105.973C89.0816 106.173 89.2664 106.268 89.5853 106.296C90.0914 106.341 90.7698 105.757 90.7698 105.757C90.7698 105.757 91.0859 105.101 91.4158 104.788C91.798 104.425 92.1078 104.328 92.6002 104.141C93.2014 103.912 93.6225 104.068 94.2154 103.818C94.7743 103.582 95.5074 102.956 95.5074 102.956C95.5074 102.956 96.2565 102.465 96.6919 102.093C97.1446 101.707 97.3643 101.452 97.7686 101.016C98.2555 100.49 98.4802 100.153 98.953 99.6148C99.3658 99.145 99.5969 98.8808 100.03 98.4294C100.359 98.0859 100.489 97.8221 100.891 97.5673C101.374 97.2609 101.721 97.1882 102.291 97.1362C102.542 97.1133 102.937 97.1362 102.937 97.1362L104.014 95.9508L105.952 98.4294L104.444 99.3993C104.444 99.3993 104.331 99.7358 104.229 99.9381C103.987 100.419 103.776 100.665 103.368 101.016C102.996 101.336 102.723 101.431 102.291 101.662C101.76 101.947 101.45 102.086 100.891 102.309C100.274 102.556 99.9068 102.637 99.2761 102.848C98.6453 103.058 98.2648 103.108 97.6609 103.387C97.1303 103.631 96.8248 103.775 96.3688 104.141C95.8809 104.532 95.2921 105.326 95.2921 105.326C95.2921 105.326 94.7156 106.312 94.2154 106.835C93.9062 107.158 93.7141 107.325 93.354 107.59C92.9588 107.88 92.4141 107.765 92.2772 108.236C92.1942 108.522 92.1835 108.772 92.3849 108.99C92.5383 109.157 92.9233 109.206 92.9233 109.206C92.9233 109.206 94.6635 109.705 95.7228 109.422C96.7481 109.147 97.2126 108.642 97.984 107.913C98.6809 107.254 98.8877 106.719 99.4914 105.973C99.905 105.462 100.121 105.161 100.568 104.68C101.156 104.047 101.512 103.714 102.183 103.171C102.746 102.716 103.039 102.407 103.691 102.093C104.17 101.863 104.458 101.749 104.983 101.662C105.522 101.574 105.931 101.353 106.383 101.662C106.74 101.907 106.804 102.215 106.921 102.632C107.057 103.119 106.967 103.423 106.921 103.925C106.833 104.881 106.561 105.38 106.275 106.296C106.009 107.148 105.82 107.612 105.521 108.452C105.191 109.38 104.964 109.885 104.66 110.822C104.269 112.027 104.038 112.704 103.798 113.948C103.186 117.13 103.896 119.005 103.906 122.246C103.909 123.214 104.072 123.727 103.691 124.616C103.408 125.275 102.967 125.469 102.722 126.125C102.399 126.987 102.399 132.699 102.722 133.13C102.848 133.298 103.036 133.278 103.152 133.453C103.294 133.667 103.26 134.1 103.26 134.1C103.26 134.1 104.248 134.03 104.875 134.1C108.572 134.513 110.951 140.674 111.336 141.105C114.435 144.577 115.309 147.442 119.088 150.157C119.979 150.797 120.46 151.209 121.457 151.666C122.34 152.07 122.924 152.06 123.826 152.42C124.874 152.839 125.524 153.014 126.41 153.713C127.421 154.511 128.456 156.3 128.456 156.3L129.64 158.455C129.64 158.455 129.91 157.34 130.071 156.623C130.559 154.449 130.668 153.195 131.148 151.019C131.634 148.816 132.548 145.415 132.548 145.415C132.548 145.415 131.309 145.141 130.502 145.092C129.365 145.023 128.723 145.157 127.595 145.308C126.491 145.455 124.795 145.846 124.795 145.846C124.795 145.846 126.496 144.882 127.487 144.122C128.479 143.361 129.028 142.905 129.856 141.967C130.983 140.689 131.376 139.78 132.225 138.303C133.162 136.671 133.704 135.749 134.378 133.992C134.836 132.799 134.962 132.085 135.347 130.867C135.72 129.687 135.962 129.035 136.316 127.849C136.728 126.47 137.027 125.709 137.285 124.293C137.483 123.21 137.608 121.491 137.608 121.491C137.608 121.491 137.006 120.645 136.639 120.09C136.202 119.428 135.885 119.092 135.562 118.366C135.26 117.685 135.045 117.28 135.024 116.534C135 115.708 135.203 115.231 135.562 114.487C135.903 113.782 136.747 112.87 136.747 112.87C136.747 112.87 135.329 112.288 134.486 111.792C133.781 111.379 133.389 111.131 132.763 110.607C132.17 110.111 131.92 109.743 131.363 109.206C130.785 108.648 129.856 107.805 129.856 107.805C129.856 107.805 128.758 107.352 128.025 107.158C126.394 106.728 125.403 106.906 123.718 106.835C121.534 106.743 118.748 107.262 118.119 106.835C117.7 106.551 117.462 106.372 117.15 105.973C116.802 105.528 116.67 105.219 116.504 104.68C116.207 103.714 116.546 103.103 116.504 102.093C116.462 101.081 116.289 99.5071 116.289 99.5071C116.289 99.5071 115.809 98.9256 115.535 98.5288C115.311 98.2046 115.148 98.0391 114.997 97.6751C114.864 97.3546 114.79 97.1599 114.781 96.8129C114.771 96.4251 114.775 96.1612 114.997 95.843C115.309 95.3944 116.396 94.9809 116.396 94.9809V94.7654C116.396 94.7654 115.589 94.8306 115.212 94.5499C114.996 94.3891 114.781 94.011 114.781 94.011C114.781 94.011 114.609 92.9376 114.781 92.2868C114.888 91.8862 114.944 91.6331 115.212 91.3169C115.446 91.0406 115.966 90.778 115.966 90.778C115.966 90.778 115.927 90.2143 115.75 89.9159C115.552 89.5823 114.997 89.2693 114.997 89.2693C114.997 89.2693 113.672 89.1351 112.843 88.946C112.376 88.8395 112.083 88.8464 111.659 88.6227C111.08 88.3176 110.749 88.0313 110.474 87.4373C110.138 86.7118 110.364 86.1817 110.474 85.3898C110.609 84.4275 110.801 83.8918 111.228 83.0189C111.51 82.4418 111.773 82.1767 112.089 81.618C112.553 80.7994 113.166 79.4626 113.166 79.4626C113.166 79.4626 110.61 79.3265 109.074 78.8161C107.736 78.3711 106.944 77.9284 105.737 77.1996C104.447 76.4216 103.743 76.0432 102.722 74.9365C102.254 74.4295 101.994 74.1308 101.645 73.5355C101.254 72.8682 100.92 72.4767 100.891 71.7035C100.858 70.7976 101.22 70.2815 101.753 69.5482C102.243 68.8725 102.719 68.5652 103.368 68.0395C104.8 66.8786 105.637 66.3564 107.244 65.4531C109.001 64.4653 110.093 64.108 111.982 63.4056C113.515 62.8354 115.966 62.1124 115.966 62.1124C115.966 62.1124 116.615 59.6946 117.258 58.2328C117.917 56.7324 118.483 55.9875 119.304 54.5688C120.163 53.082 120.606 52.222 121.565 50.797C122.504 49.4005 122.777 48.3228 124.149 47.3485C125.117 46.6608 125.813 46.5108 126.948 46.163C128.575 45.6648 129.561 45.6623 131.255 45.5164C133.56 45.3181 134.871 45.3505 137.178 45.5164C138.868 45.6381 139.809 45.7997 141.485 46.0553C143.132 46.3065 144.065 46.4168 145.684 46.8096C147.571 47.2675 148.698 47.4237 150.422 48.3184C151.997 49.136 152.812 49.7726 154.082 51.0125C155.131 52.0357 155.634 52.7056 156.451 53.9222C157.228 55.0791 157.557 55.7976 158.174 57.0474C158.724 58.1623 159.046 58.787 159.466 59.9571C159.967 61.3498 160.435 63.6211 160.435 63.6211C160.435 63.6211 162.681 64.3017 164.096 64.8065C165.714 65.3836 166.573 65.5609 168.188 66.423C169.264 66.9973 169.815 67.5359 170.449 68.5783C171.023 69.5218 171.209 70.1724 171.31 71.2725C171.396 72.1982 171.305 72.7376 171.095 73.6433C170.924 74.3824 170.797 74.8015 170.449 75.4753C169.643 77.0348 168.775 77.468 167.434 78.6005C165.704 80.0614 162.481 81.9413 162.481 81.9413C162.481 81.9413 163.134 83.6844 163.342 84.8509C163.506 85.766 163.598 86.293 163.558 87.2218C163.517 88.1619 163.365 88.6821 163.127 89.5926C162.845 90.6745 162.158 92.2868 162.158 92.2868C162.158 92.2868 163.196 93.6732 163.989 94.4421C164.653 95.0872 165.044 95.4432 165.819 95.9508C166.937 96.6833 167.717 96.8153 168.942 97.3518C171.445 98.4489 172.917 98.9074 175.402 100.046C177.881 101.182 181.647 103.171 181.647 103.171V159.102H81.9404C81.9404 159.102 85.6229 153.713 85.4937 153.39C85.0954 152.394 84.2579 152.235 83.6632 151.342C83.4479 151.019 87.1223 148.286 88.7239 145.846C89.1279 145.231 89.693 144.23 89.693 144.23L88.2932 142.829C88.2932 142.829 87.0011 143.26 86.4628 143.152C85.9244 143.044 85.5486 142.612 85.1707 142.075C84.8562 141.627 84.7538 141.315 84.6323 140.781C84.4735 140.084 84.6323 138.949 84.6323 138.949L81.8328 135.285L80.5407 133.346L79.2486 130.759L77.7411 128.281L76.5567 126.772C76.5567 126.772 75.5987 128.234 75.0493 129.25C74.4398 130.378 74.202 131.111 73.6495 132.268C73.179 133.253 72.8538 133.774 72.3574 134.746C71.844 135.752 71.5599 136.318 71.0653 137.333C70.3727 138.754 69.3425 140.997 69.3425 140.997L65.5739 140.243C65.5739 140.243 64.0367 140.981 63.0974 141.536C62.3642 141.969 61.9956 142.28 61.2669 142.721C60.6866 143.072 60.2761 143.144 59.7595 143.583C59.5329 143.776 59.2211 144.122 59.2211 144.122C59.2211 144.122 59.0221 145.192 58.7904 145.846C58.5578 146.503 58.4297 146.888 58.0367 147.463C57.7172 147.93 57.4734 148.146 57.0676 148.54C56.4881 149.104 56.099 149.349 55.4525 149.834C54.5562 150.505 54.0377 150.864 53.0836 151.45C51.8654 152.199 51.1756 152.63 49.8534 153.174C48.4751 153.742 47.6569 153.976 46.1924 154.252C44.6173 154.549 43.6992 154.582 42.1008 154.575C40.7125 154.57 39.9225 154.444 38.5475 154.252C37.3051 154.078 36.6344 153.831 35.425 153.498C34.1939 153.159 33.4607 153.066 32.3024 152.528C31.2228 152.027 30.6324 151.674 29.7182 150.911C28.9185 150.244 28.4641 149.839 27.8877 148.972C27.3983 148.235 27.1738 147.771 26.9187 146.924C26.6612 146.069 26.657 145.552 26.5956 144.661C26.5378 143.821 26.4868 143.34 26.5956 142.506C26.7026 141.686 26.826 141.225 27.134 140.458C27.4006 139.794 27.6058 139.441 27.9954 138.842C28.1926 138.538 28.5338 138.087 28.5338 138.087C28.5338 138.087 27.3324 138.5 26.5956 138.842C25.9471 139.143 25.5548 139.278 24.9805 139.704C24.4072 140.129 24.0703 140.369 23.5808 140.889C23.1926 141.301 23.0388 141.607 22.7194 142.075C22.3263 142.649 22.2059 143.037 21.9656 143.691C21.7543 144.266 21.6332 144.595 21.5349 145.2C21.4 146.031 21.3248 146.54 21.5349 147.355C21.6854 147.939 21.8749 148.237 22.181 148.756C22.6518 149.554 23.0088 149.958 23.6884 150.588C24.2625 151.12 24.6413 151.357 25.3036 151.773C25.9884 152.204 26.4032 152.396 27.134 152.743C28.0371 153.172 28.5681 153.359 29.5029 153.713C30.4605 154.076 31.0039 154.264 31.9794 154.575C33.1459 154.948 33.8037 155.151 34.9943 155.437C35.7881 155.628 38.1618 155.96 38.9782 155.963C41.8855 155.976 38.9782 155.963 42.1008 155.976C43.2554 155.981 45.7152 155.705 46.8385 155.437C48.1197 155.132 48.819 154.884 50.0687 154.468C51.3436 154.043 52.0958 153.881 53.299 153.282C54.3647 152.752 54.9358 152.387 55.8832 151.666C56.5948 151.124 56.9353 150.749 57.606 150.157C58.3656 149.487 58.8257 149.147 59.5441 148.433C60.3046 147.676 60.6996 147.219 61.3746 146.385C62.0947 145.496 62.4334 144.947 63.0974 144.014C63.6932 143.178 64.051 142.724 64.6048 141.859C65.0016 141.239 65.5739 140.243 65.5739 140.243L69.3425 140.997C69.3425 140.997 68.4369 142.646 67.8351 143.691C67.4208 144.41 67.1895 144.814 66.7583 145.523C66.1094 146.59 65.7823 147.216 65.0355 148.217C64.3396 149.15 63.8872 149.626 63.0974 150.48C62.2896 151.354 61.8194 151.83 60.9439 152.636C60.1313 153.383 59.6756 153.808 58.7904 154.468C57.7144 155.27 57.0685 155.671 55.8832 156.3C54.3172 157.131 53.3759 157.495 51.6838 158.024C49.9989 158.55 49.0156 158.738 47.2692 158.994C45.8491 159.202 45.041 159.233 43.6082 159.317C40.7538 159.485 39.1244 159.666 36.2864 159.317C35.4836 159.218 35.0361 159.14 34.2406 158.994C32.9261 158.753 32.1852 158.615 30.9026 158.239C29.7027 157.888 29.04 157.647 27.8877 157.162C26.8997 156.745 26.3465 156.501 25.4112 155.976C24.7191 155.588 24.352 155.334 23.6884 154.899C23.0056 154.451 22.5954 154.233 21.9656 153.713C21.2776 153.145 20.9165 152.787 20.3505 152.097C19.6548 151.249 19.3043 150.722 18.8431 149.726C18.4515 148.881 18.2271 148.384 18.0893 147.463C17.9711 146.672 18.0075 146.211 18.0893 145.415C18.173 144.602 18.2471 144.138 18.52 143.368C18.7715 142.658 18.9925 142.288 19.3814 141.643C19.7556 141.024 20.0034 140.698 20.4582 140.135C21.0006 139.463 21.3333 139.106 21.9656 138.518C22.8901 137.659 23.5085 137.291 24.5498 136.578C25.5322 135.906 26.0941 135.541 27.134 134.962C28.0378 134.459 28.6057 134.292 29.5029 133.777C30.3729 133.277 31.6564 132.376 31.6564 132.376L31.9794 131.406L32.0871 130.328L33.0561 128.927V127.203C33.0561 127.203 33.4708 126.572 33.8099 126.233C34.1489 125.894 34.7789 125.479 34.7789 125.479C34.7789 125.479 34.6492 124.865 34.7789 124.509C34.9118 124.144 35.425 123.754 35.425 123.754C35.425 123.754 35.5326 122.569 35.3173 122.353C34.9943 122.03 33.5672 122.676 32.7331 122.03C32.3539 121.736 32.1247 121.517 31.9794 121.06C31.8519 120.659 31.8774 120.391 31.9794 119.983C32.1124 119.45 32.2516 119.306 32.6254 118.905C33.0154 118.486 33.461 118.137 34.0252 118.043C34.6712 117.935 34.8866 117.935 35.5326 118.151C35.9875 118.302 36.5017 118.905 36.5017 118.905C36.5017 118.905 37.298 119.386 37.7938 119.228C38.1634 119.111 38.5475 118.582 38.5475 118.582C38.5475 118.582 38.6295 118.11 38.5475 117.827C38.4231 117.398 38.1168 117.288 37.7938 116.965C37.3894 116.56 37.0905 116.33 36.9324 115.78C36.8046 115.335 36.9324 114.594 36.9324 114.594C36.9324 114.594 36.2469 114.172 35.8557 113.84C35.334 113.396 35.0896 113.089 34.6712 112.547C34.2435 111.992 34.0413 111.699 33.8099 111.038C33.6269 110.516 33.5405 110.188 33.4868 109.637C33.393 108.674 33.3226 108.112 33.4868 107.158C33.5908 106.555 33.6874 106.218 33.9175 105.65C34.1509 105.074 34.3087 104.753 34.6712 104.249C35.1227 103.621 35.4885 103.356 36.071 102.848C36.7047 102.294 37.46 102.327 37.7938 101.555C38.0609 100.937 37.505 100.439 37.7938 99.8304C38.0758 99.2366 39.0859 98.7527 39.0859 98.7527V98.2139C39.0859 98.2139 37.2451 98.2038 36.071 98.1061C34.0318 97.9364 32.8567 97.8515 30.9026 97.244C29.4631 96.7965 28.4048 96.8124 27.3494 95.7353C26.8838 95.2602 26.8307 95.2244 26.3803 94.3343C26.2103 93.9985 25.7342 92.6101 25.7342 92.6101C25.7342 92.6101 24.9534 92.5222 24.6575 92.179C24.3233 91.7914 24.3589 91.212 24.4421 90.8858C24.6672 90.0037 25.554 89.9733 26.3803 89.5926C27.2513 89.1913 27.8074 89.1268 28.7491 88.946C31.0618 88.5021 34.7789 88.946 34.7789 88.946C34.7789 88.946 34.456 87.6299 34.7789 86.8985C35.0316 86.3262 35.8557 85.7131 35.8557 85.7131L35.748 84.7432C35.748 84.7432 34.662 84.1343 34.1329 83.5577C33.4836 82.8503 33.3207 82.2878 32.9484 81.4024C32.5407 80.4327 32.1947 78.8161 32.1947 78.8161Z" fill="#6FCF97"/>
</svg>
