<svg width="874" height="1143" viewBox="0 0 874 1143" fill="none" xmlns="http://www.w3.org/2000/svg">
<path fill-rule="evenodd" clip-rule="evenodd" d="M438.498 31.319L26 301.107V838.893L438.498 1108.68L851 839.395V300.605L438.498 31.319ZM33 304.893L438.502 39.6809L844 304.395V835.605L438.502 1100.32L33 835.107V304.893Z" fill="black"/>
<path fill-rule="evenodd" clip-rule="evenodd" d="M436.998 0.817627L0.5 286.623V856.377L436.998 1142.18L873.5 856.909V286.091L436.998 0.817627ZM7.5 290.407L437.002 9.18233L866.5 289.879V853.121L437.002 1133.82L7.5 852.593V290.407Z" fill="black"/>
<path d="M386.5 971L347 1000L367.5 1003.5L366 1025.5L405.5 997.5L408.5 978.5L439 956.644L469.5 978.5L472.5 997.5L512 1025.5L510.5 1003.5L531 1000L491.5 971L473 973L444.846 952.455L502 911.5V924.5L531 886L485 901.5L497.5 905.5L439 948.189L380.5 905.5L393 901.5L347 886L376 924.5V911.5L433.154 952.455L405 973L386.5 971Z" fill="black"/>
<path d="M300.531 946.328L297.5 937L294.469 946.328H284.661L292.596 952.093L289.565 961.422L297.5 955.657L305.435 961.422L302.404 952.093L310.339 946.328H300.531Z" fill="black"/>
<path d="M373.531 946.328L370.5 937L367.469 946.328H357.661L365.596 952.093L362.565 961.422L370.5 955.657L378.435 961.422L375.404 952.093L383.339 946.328H373.531Z" fill="black"/>
<path d="M334.5 937L337.531 946.328H347.339L339.404 952.093L342.435 961.422L334.5 955.657L326.565 961.422L329.596 952.093L321.661 946.328H331.469L334.5 937Z" fill="black"/>
<path d="M508.531 946.328L505.5 937L502.469 946.328H492.661L500.596 952.093L497.565 961.422L505.5 955.657L513.435 961.422L510.404 952.093L518.339 946.328H508.531Z" fill="black"/>
<path d="M578.5 937L581.531 946.328H591.339L583.404 952.093L586.435 961.422L578.5 955.657L570.565 961.422L573.596 952.093L565.661 946.328H575.469L578.5 937Z" fill="black"/>
<path d="M545.531 946.328L542.5 937L539.469 946.328H529.661L537.596 952.093L534.565 961.422L542.5 955.657L550.435 961.422L547.404 952.093L555.339 946.328H545.531Z" fill="black"/>
<path d="M83 758V751H114V758H109V804H126V758H121V751H152V758H148V853H152V860H121V853H126V807H109V853H114V860H83V853H87V758H83Z" fill="black"/>
<path fill-rule="evenodd" clip-rule="evenodd" d="M191.5 748C175.208 748 162 761.208 162 777.5V832.5C162 848.792 175.208 862 191.5 862C207.792 862 221 848.792 221 832.5V777.5C221 761.208 207.792 748 191.5 748ZM193 757C186.373 757 181 762.373 181 769V843C181 849.627 186.373 855 193 855C199.627 855 205 849.627 205 843V769C205 762.373 199.627 757 193 757Z" fill="black"/>
<path fill-rule="evenodd" clip-rule="evenodd" d="M264.5 748C248.208 748 235 761.208 235 777.5V832.5C235 848.792 248.208 862 264.5 862C280.792 862 294 848.792 294 832.5V777.5C294 761.208 280.792 748 264.5 748ZM266 757C259.373 757 254 762.373 254 769V843C254 849.627 259.373 855 266 855C272.627 855 278 849.627 278 843V769C278 762.373 272.627 757 266 757Z" fill="black"/>
<path d="M306 758V751H337V758H332V795.763H333L358 758H353V751H376V758H365L345.5 787.5L372 853H381L407 747.5L401.5 789L394 824H411.5L401.5 789L407 747.5H409L441.5 853H446V860H415V853H420L412 826H393.5L388 853H393V860H346V853H350L334.5 809L333 806H332V853H337V860H306V853H311V758H306Z" fill="black"/>
<path d="M480 751V758H475V804H491V758H487V751H518V758H513V853H518V860H487V853H491V807H475V853H480V860H448V853H453V758H448V751H480Z" fill="black"/>
<path d="M586.5 748C570.208 748 557 761.208 557 777.5V832.5C557 848.792 570.208 862 586.5 862C596.707 862 604.5 855.5 605 852.5L611 832H605V838.5L604.5 840.5L603.5 843C600.5 849.5 594.627 855 588 855C581.373 855 576 849.627 576 843V769C576 762.373 581.373 757 588 757C594.627 757 596 756.5 602 764L604 767.5L605 770V758C599 750.5 596.707 748 586.5 748Z" fill="black"/>
<path d="M605 832H611V859H605V832Z" fill="black"/>
<path d="M605 750H611V778H605V750Z" fill="black"/>
<path d="M650 751H618V758H623V853H618V860H660.5L663 859L667 857V860H677V853H673V832H667V842L664 848L661 851L657 853H645V758H650V751Z" fill="black"/>
<path fill-rule="evenodd" clip-rule="evenodd" d="M676 860H691V853H686L691.5 826H710L718 853H713V860H744V853H739.5L707 747.5H705L679 853H676V860ZM692 824L699.5 789L709.5 824H692Z" fill="black"/>
<path d="M753 758H746V751H767L796 815.5V758H791V751H810V758H805V860H799L760 776V853H767V860H744V853H753V758Z" fill="black"/>
<path d="M404.677 1028.75C404.677 1027.9 404.87 1027.12 405.257 1026.4C405.663 1025.67 406.156 1025.02 406.736 1024.46C407.316 1023.88 408.109 1023.18 409.114 1022.34C409.733 1021.84 410.061 1021.57 410.1 1021.53C411.357 1020.47 412.333 1019.42 413.029 1018.4C413.725 1017.38 414.073 1016.2 414.073 1014.86C414.073 1013.93 413.754 1013.19 413.116 1012.63C412.497 1012.05 411.676 1011.76 410.651 1011.76C409.704 1011.76 408.834 1012 408.041 1012.48C407.268 1012.95 406.543 1013.63 405.866 1014.54L404.271 1013.18C405.044 1012.12 405.992 1011.29 407.113 1010.69C408.254 1010.09 409.433 1009.79 410.651 1009.79C412.372 1009.79 413.744 1010.25 414.769 1011.18C415.794 1012.09 416.306 1013.32 416.306 1014.86C416.306 1016.49 415.842 1017.94 414.914 1019.21C413.986 1020.49 412.71 1021.81 411.086 1023.18C410.68 1023.53 410.487 1023.7 410.506 1023.68C409.307 1024.66 408.418 1025.48 407.838 1026.11C407.258 1026.75 406.968 1027.39 406.968 1028.03H416.567V1030H404.677V1028.75Z" fill="black"/>
<path d="M429.676 1030.46C428.38 1030.46 427.191 1030.02 426.109 1029.13C425.026 1028.24 424.175 1027.01 423.557 1025.45C422.938 1023.86 422.629 1022.08 422.629 1020.11C422.629 1018.14 422.938 1016.37 423.557 1014.8C424.175 1013.22 425.016 1011.99 426.08 1011.12C427.162 1010.23 428.351 1009.79 429.647 1009.79C430.942 1009.79 432.121 1010.23 433.185 1011.12C434.267 1011.99 435.118 1013.22 435.737 1014.8C436.355 1016.37 436.665 1018.14 436.665 1020.11C436.665 1022.08 436.355 1023.86 435.737 1025.45C435.118 1027.01 434.277 1028.24 433.214 1029.13C432.15 1030.02 430.971 1030.46 429.676 1030.46ZM429.647 1028.55C430.575 1028.55 431.396 1028.2 432.112 1027.51C432.827 1026.79 433.388 1025.79 433.794 1024.52C434.2 1023.22 434.403 1021.75 434.403 1020.11C434.403 1018.47 434.2 1017.01 433.794 1015.73C433.388 1014.46 432.827 1013.47 432.112 1012.77C431.396 1012.06 430.575 1011.7 429.647 1011.7C428.719 1011.7 427.887 1012.06 427.153 1012.77C426.437 1013.47 425.877 1014.46 425.471 1015.73C425.065 1017.01 424.862 1018.47 424.862 1020.11C424.862 1021.75 425.065 1023.22 425.471 1024.52C425.877 1025.79 426.437 1026.79 427.153 1027.51C427.887 1028.2 428.719 1028.55 429.647 1028.55Z" fill="black"/>
<path d="M447.612 1010.22H449.584V1030H447.612V1013.47L442.914 1018.11L441.812 1017.01L447.612 1010.22Z" fill="black"/>
<path d="M457.452 1010.22H469.4L462.324 1030H460.323L466.703 1012.25H457.452V1010.22Z" fill="black"/>
<path d="M407.652 905.039C407.652 903.805 408.184 902.797 409.246 902.016C410.309 901.234 411.535 900.844 412.926 900.844C413.996 900.844 415.062 901.09 416.125 901.582C416.477 901.738 416.875 901.988 417.32 902.332L416.5 904.102C416.148 903.828 415.781 903.59 415.398 903.387C414.5 902.91 413.676 902.668 412.926 902.66C412.113 902.66 411.391 902.871 410.758 903.293C410.125 903.707 409.809 904.289 409.809 905.039C409.809 905.344 409.867 905.625 409.984 905.883C410.109 906.141 410.32 906.383 410.617 906.609L411.297 907.137C411.453 907.254 411.75 907.426 412.188 907.652C412.633 907.879 412.879 908.008 412.926 908.039L414.039 908.648C414.578 908.945 414.945 909.16 415.141 909.293L416.02 909.879C416.418 910.145 416.699 910.387 416.863 910.605C417.027 910.816 417.211 911.078 417.414 911.391C417.625 911.703 417.77 912.043 417.848 912.41C417.926 912.777 417.965 913.184 417.965 913.629C417.965 914.973 417.406 916.098 416.289 917.004C415.172 917.91 413.891 918.363 412.445 918.363C411.242 918.363 410.082 918.027 408.965 917.355C408.473 917.066 408.035 916.723 407.652 916.324L408.484 914.52C408.93 914.918 409.371 915.254 409.809 915.527C410.832 916.199 411.711 916.535 412.445 916.535C413.375 916.535 414.168 916.266 414.824 915.727C415.48 915.18 415.809 914.48 415.809 913.629C415.809 912.879 415.527 912.207 414.965 911.613C414.41 911.02 413.73 910.52 412.926 910.113L410.523 908.859C409.727 908.43 409.047 907.895 408.484 907.254C407.93 906.605 407.652 905.867 407.652 905.039Z" fill="black"/>
<path d="M421.117 918V901.195H423.273V918H421.117Z" fill="black"/>
<path d="M427.164 918V901.195H429.32L437.746 914.402V901.195H439.902V918H437.746L429.32 904.781V918H427.164Z" fill="black"/>
<path d="M445.293 915.785C443.574 914.059 442.715 911.996 442.715 909.598C442.715 907.199 443.574 905.141 445.293 903.422C447.012 901.703 449.07 900.844 451.469 900.844C453.422 900.844 455.199 901.449 456.801 902.66L455.406 904.055C454.188 903.125 452.875 902.66 451.469 902.66C449.648 902.66 448.094 903.34 446.805 904.699C445.516 906.059 444.871 907.691 444.871 909.598C444.871 911.504 445.516 913.137 446.805 914.496C448.094 915.855 449.648 916.535 451.469 916.535C452.906 916.535 454.219 916.078 455.406 915.164L456.801 916.559C455.184 917.762 453.406 918.363 451.469 918.363C449.07 918.363 447.012 917.504 445.293 915.785Z" fill="black"/>
<path d="M459.906 918V901.195H470.617V902.73H462.062V908.062H469.176V909.598H462.062V916.465H470.617V918H459.906Z" fill="black"/>
<path d="M419 342.5C419 342.5 419.295 334.166 420.5 329C421.777 323.525 422.482 320.527 425 315.5C427.838 309.835 429.762 306.616 433.5 301.5C436.126 297.904 436.394 297.622 441 292.5C442.5 290.832 442.5 290.5 447 286.5C449.582 284.205 451.742 282.382 453.5 281C460.5 275.5 460.5 275.5 460.5 275.5C460.5 275.5 464.94 271.532 467.5 269C470.256 266.274 472.307 263.849 474.5 261.5C475.901 260 480.5 255 480.5 255L485.5 248.5L490 241L493.5 234.5C493.5 234.5 497.328 227.44 498.5 222.5C499.586 217.924 499.451 215.202 499.5 210.5C499.541 206.59 499.828 204.321 499 200.5C498.202 196.814 495.5 191.5 495.5 191.5C495.5 191.5 491.857 186.049 489 183C486.827 180.68 483 177.5 483 177.5C483 177.5 478.212 173.129 475 170.5C471.766 167.853 469.69 166.7 466.5 164C463.231 161.233 461.651 159.9 458.5 157C456.364 155.034 455.046 153.559 453 151.5C450.268 148.75 448.632 147.237 446.5 144C444.579 141.083 443.778 139.251 442.5 136C441.235 132.78 440.586 130.91 440 127.5C439.437 124.223 439.38 122.323 439.5 119C439.643 115.054 440.05 112.833 441 109C441.49 107.021 442.5 104 442.5 104C442.5 104 442.921 111.029 443.5 115.5C443.83 118.047 443.959 119.489 444.5 122C445.099 124.779 445.598 126.354 446.5 129C447.712 132.555 448.758 134.486 451 137.5C453.143 140.38 457.5 144 457.5 144C457.5 144 460.743 146.885 463 148.5C466.132 150.742 471.5 153.5 471.5 153.5L482.5 159.5C482.5 159.5 487.525 162.649 490.5 165C494.51 168.169 496.664 170.129 500 174C502.83 177.284 504.399 179.208 506.5 183C508.837 187.218 509.959 189.791 511 194.5C512.222 200.033 511.889 203.347 511.5 209C511.161 213.932 510.97 216.78 509.5 221.5C508.02 226.253 504 233 504 233L499.5 241.5L494.5 249L489.5 255C489.5 255 485.094 260.04 482 263C479.199 265.679 474.5 269.5 474.5 269.5C474.5 269.5 468.392 274.359 464.5 277.5C461.367 280.028 459.536 281.357 456.5 284C453.894 286.268 452.369 287.485 450 290C443.088 297.338 436.5 312 436.5 312C436.5 312 433.921 317.319 433.5 321C431.5 338.5 430.5 344 435 365C436.5 372.002 439.302 375.654 443.5 382C447.698 388.346 457 398 457 398C457 398 441.98 387.736 434.5 379C428.159 371.594 423.863 367.319 421 358C419.208 352.166 419 342.5 419 342.5Z" fill="black"/>
<path d="M438.5 329C439.558 325.569 440.411 323.719 442 320.5C443.705 317.047 444.86 315.202 447 312C448.476 309.792 451 306.5 451 306.5C451 306.5 453.7 302.913 455.5 301C457.96 298.386 459.318 297.177 462 295C464.608 292.882 466.266 291.953 469 290C470.367 289.024 471.085 288.405 472.5 287.5C474.194 286.417 477 285 477 285C477 285 479.826 283.848 482 283C483 282.61 484.5 282.323 487 281.5C489.411 280.706 493 279 493 279L498 276.5C498 276.5 500.512 275.086 502 274C504.122 272.452 505.489 271.649 507 269.5C508.004 268.071 508.419 267.147 509 265.5C509.663 263.622 509.707 262.47 510 260.5C510.575 256.632 510.937 254.386 510.5 250.5C510.141 247.3 510.681 245.496 509.5 242.5C508.7 240.469 508.02 239.43 507 237.5C506.061 235.723 505.545 234.717 504.5 233C503.402 231.196 502.962 230.025 501.5 228.5C500.149 227.091 499.557 226.179 498 225C495.447 223.067 493.86 221.942 491 220.5C488.795 219.388 487.314 219.365 485 218.5C482.622 217.611 481.325 217.018 479 216C476.439 214.879 472.5 213 472.5 213C472.5 213 468.656 210.811 466.5 209C464.809 207.579 463.524 206.599 462 205C460.188 203.098 459.307 202.279 458 200C456.771 197.858 456.401 196.437 456 194C455.588 191.495 455.471 189.983 456 187.5C456.637 184.511 459.5 180.5 459.5 180.5C459.5 180.5 459.564 184.492 460 187C460.487 189.801 460.673 191.486 462 194C462.658 195.245 463.116 195.904 464 197C465.915 199.374 467.461 200.311 470 202C472.908 203.935 474.757 204.702 478 206C481.039 207.216 482.903 207.44 486 208.5C488.162 209.24 489.373 209.664 491.5 210.5C494.674 211.747 496.522 212.339 499.5 214C501.96 215.371 503.344 216.189 505.5 218C507.192 219.421 509.5 222 509.5 222C509.5 222 512.143 224.58 513.5 226.5C514.912 228.498 515.409 229.81 516.5 232C517.552 234.112 518.136 235.304 519 237.5C520.198 240.546 520.647 242.246 521 245.5C521.316 248.418 521.385 250.09 521 253C520.609 255.961 520.436 257.664 519.5 260.5C518.624 263.155 517.921 264.592 516.5 267C515.15 269.287 514.279 270.528 512.5 272.5C510.74 274.451 509.64 275.476 507.5 277C505.152 278.673 501 280.5 501 280.5C501 280.5 497.349 281.738 495 282.5C491.887 283.51 490.131 284.046 487 285C485.05 285.594 482 286.5 482 286.5C482 286.5 479.189 287.579 477.5 288.5C475.646 289.511 474.677 290.216 473 291.5C471.133 292.93 468.5 295.5 468.5 295.5C468.5 295.5 463.904 299.472 461.5 302.5C459.749 304.705 457.5 308.5 457.5 308.5C457.5 308.5 455.185 312.06 454 314.5C452.542 317.501 452.142 319.365 451 322.5C449.795 325.808 448.787 327.569 448 331C447.166 334.636 446.367 336.726 446 340.5C445.679 343.804 446 349 446 349C446 349 446.596 357.273 447.5 362.5C448.598 368.846 451.5 378.5 451.5 378.5C451.5 378.5 446.885 375.197 444.5 372.5C442.455 370.187 441.445 368.728 440 366C438.439 363.051 437.788 361.242 437 358C436.165 354.564 436.122 352.534 436 349C435.866 345.092 436.02 342.881 436.5 339C436.989 335.047 437.327 332.806 438.5 329Z" fill="black"/>
<path d="M485.5 444.5C485.5 444.5 493.878 436.976 500.5 436.5C501.669 436.416 503.5 436.5 503.5 436.5L512 430.5L511.5 430L514 427.5L518 432L515.5 434L515 433.5L506.5 440C506.5 440 506.23 441.228 506 442C503.983 448.782 494.5 456 494.5 456L485.5 444.5Z" fill="black"/>
<path d="M150 366.5C150 366.5 160.231 362.937 167 361.5C175.458 359.704 180.353 359 189 359C197.647 359 202.525 359.783 211 361.5C216.942 362.704 226 365.5 226 365.5L223 380C223 380 221.482 382.441 220.5 384C219.143 386.154 218.596 387.516 217 389.5C215.442 391.437 212.5 394 212.5 394V398.5C212.5 398.5 217.525 401.02 219 404C220.646 407.325 219 413.5 219 413.5C219 413.5 229.135 413.838 235.5 415C243.945 416.542 248.493 418.403 256.5 421.5C260.661 423.109 266.499 421.567 267 426C267.257 428.271 266.831 430.132 265 431.5C263.71 432.464 261 432.5 261 432.5C261 432.5 260.201 437.987 258.5 441C255.771 445.833 252.339 447.281 247.5 450C243.833 452.06 237.5 454 237.5 454C237.5 454 231.44 455.423 227.5 456C218.031 457.387 203 456.5 203 456.5V459C203 459 206.978 461.58 208 464C209.215 466.878 206.288 469.121 207.5 472C208.897 475.318 212.115 475.303 214.5 478C216.545 480.313 217.684 481.707 219 484.5C220.132 486.902 220.628 487.53 221.5 490C222.494 492.817 222.92 495.156 223.5 498C224.319 502.018 224.249 504.469 223.5 508.5C222.936 511.535 222.599 513.615 221.5 516.5C220.441 519.279 219.549 520.461 218 523C216.411 525.604 215.318 527.018 213 529C211.065 530.654 207.5 532.5 207.5 532.5C207.5 532.5 208.129 535.946 207.5 538C207 539.631 206.935 540.011 205 542C203.361 543.685 199.203 545.256 198.5 547.5C198.091 548.804 198.5 551 198.5 551C198.5 551 200.448 552.72 201.5 554C203.223 556.096 202.501 558.946 205 560C206.619 560.683 209 560.757 209 559C209 555.5 208.782 555.534 209.5 553.5C210.515 550.624 212.447 549.756 214.5 547.5C216.73 545.049 218.016 543.693 220.5 541.5C221.643 540.491 224 538.5 224 538.5C224 538.5 223.042 536.734 223 535.5C222.943 533.833 222.85 533.209 224 532C224.785 531.175 225.361 531 226.5 531C228.5 531 230 532 230 532C230 532 234.006 528.699 236.5 526.5C238.884 524.398 240.232 523.227 242.5 521C245.358 518.193 246.717 516.382 249.5 513.5C252.377 510.52 254.144 509 257 506C259.192 503.698 260.307 502.301 262.5 500C265.168 497.202 266.68 495.645 269.5 493C273.439 489.305 280 484 280 484L285.5 479C285.5 479 289.041 475.805 291.5 474C294.47 471.82 296.307 470.839 299.5 469C302.377 467.343 303.956 466.325 307 465C310.397 463.522 312.379 462.786 316 462C319.456 461.25 321.464 460.958 325 461C328.949 461.047 331.226 461.338 335 462.5C337.426 463.247 338.76 463.806 341 465C343.724 466.453 345.204 467.436 347.5 469.5C349.973 471.723 351.119 473.258 353 476C355.124 479.097 355.972 481.069 357.5 484.5C358.858 487.548 359.568 489.296 360.5 492.5C361.666 496.508 362.085 498.846 362.5 503C362.966 507.663 362.5 515 362.5 515V529.5C362.623 532.823 361.411 535.079 363 538C363.729 539.34 365.5 541 365.5 541L367.5 539L368.5 534L372.5 549.5L347 551C347 551 348.191 546.164 348.5 543C348.842 539.502 348.5 537.515 348.5 534C348.5 528.728 348.632 525.77 348.5 520.5C348.392 516.201 348.638 513.753 348 509.5C347.494 506.128 346.902 504.289 346 501C345.134 497.843 345.02 495.899 343.5 493C342.267 490.648 341.24 489.507 339.5 487.5C338.053 485.831 337.154 484.964 335.5 483.5C333.307 481.559 332.121 480.307 329.5 479C327.123 477.815 325.644 477.251 323 477C320.058 476.721 318.262 476.949 315.5 478C312.615 479.098 311.462 480.637 309 482.5C306.787 484.175 303.5 487 303.5 487L297 493L291 498.5L283 506L274 514L266.5 520C266.5 520 261.233 524.164 258 527C253.743 530.734 249.468 535.063 247.5 537C245.532 538.937 242.5 542 242.5 542C242.5 542 243.726 543.063 244 544C244.219 544.75 244.759 545.763 244.5 546.5C244.086 547.68 243.647 548.503 242.5 549C241.586 549.396 240.496 549 239.5 549C238.504 549 236.5 548 236.5 548L230.5 554L234.5 570L225.5 571.5L217.5 574.5L220.5 582.5L222 588.5L219.5 618V626.5C219.5 626.5 223.865 627.431 226.5 628.5C229.172 629.584 231.001 630.062 233.5 631.5C236.693 633.338 238.137 634.765 241 637C243.188 638.708 244.073 640.003 246 642C248.034 644.108 248.886 645.556 250.5 648C252.235 650.627 253.296 652.091 254.5 655C255.588 657.627 256.5 662 256.5 662C256.5 662 257.724 661.401 258.5 661C260.286 660.077 261.578 659.922 263 658.5C264.422 657.078 264.921 655.925 265.5 654C265.953 652.492 265.9 651.571 266 650C266.263 645.889 266.203 643.44 265 639.5C264.184 636.826 263.064 634.817 261.5 632.5C259.646 629.753 258.614 629.036 256 627C253.991 625.436 252.693 624.793 250.5 623.5C248.016 622.036 246.664 621.103 244 620C240.455 618.533 238.274 618.191 234.5 617.5C231.021 616.863 228.518 616.643 225 617C222.597 617.244 219.5 618 219.5 618L222 588.5C222 588.5 227.572 588.202 231 589C234.746 589.872 236.458 591.501 240 593C243.874 594.639 245.917 595.989 250 597C252.306 597.571 253.639 597.737 256 598C260.851 598.541 263.62 598.126 268.5 598C272.604 597.894 274.946 598.147 279 597.5C282.18 596.993 284.039 596.767 287 595.5C289.74 594.328 291.25 593.455 293.5 591.5C295.275 589.958 296.499 589.128 297.5 587C298.347 585.198 298.666 583.984 298.5 582C298.325 579.904 297.792 578.659 296.5 577C294.936 574.991 293.268 574.656 291 573.5C287.864 571.902 285.895 571.432 282.5 570.5C279.804 569.76 278.256 569.468 275.5 569C272.205 568.44 270.337 568.183 267 568C264.075 567.84 262.429 568 259.5 568C257.157 568 255.842 567.943 253.5 568C250.176 568.081 248.31 568.182 245 568.5C240.877 568.896 234.5 570 234.5 570L230.5 554C230.5 554 234.77 553.742 237.5 553.5C241.023 553.188 242.976 552.8 246.5 552.5C249.619 552.234 251.371 552.094 254.5 552C257.428 551.912 259.073 551.892 262 552C264.739 552.101 266.275 552.209 269 552.5C271.746 552.793 273.278 553.037 276 553.5C278.945 554.001 280.581 554.368 283.5 555C286.833 555.721 288.792 555.844 292 557C295.286 558.185 297.136 559.001 300 561C302.606 562.819 303.88 564.132 306 566.5C307.485 568.159 308.284 569.135 309.5 571C311.17 573.56 312.16 575.061 313 578C314.021 581.572 314.006 583.819 313.5 587.5C313.055 590.743 312.451 592.566 311 595.5C309.39 598.756 308.099 600.462 305.5 603C302.05 606.369 299.455 607.654 295 609.5C291.63 610.896 289.582 611.313 286 612C282.527 612.666 280.531 612.8 277 613C273.296 613.21 267.5 613 267.5 613V616.5C267.5 616.5 270.816 618.651 272.5 620.5C274.914 623.15 275.907 624.789 277.5 628C278.549 630.113 279.352 631.731 280 634C281 637.5 281.02 637.633 281.5 640C282.011 642.517 282 646.5 282 646.5C282 646.5 285.793 644.249 288 642.5C292.881 638.633 294.565 635.326 298.5 630.5C302.375 625.748 304.548 623.067 308 618C311.847 612.354 313.634 608.945 317 603C319.841 597.982 324 590 324 590L329.5 579.5C329.5 579.5 334.098 572.203 337 567.5C339.163 563.995 342.5 558.5 342.5 558.5L347 551L372.5 549.5L368.5 534C368.5 534 369.566 529.811 371 527.5C372.747 524.684 374.299 523.42 377 521.5C379.491 519.729 381.202 519.231 384 518C385.925 517.153 389 516 389 516C389 516 388.218 511.447 388 508.5C387.726 504.8 386.969 502.564 388 499C388.949 495.719 390.108 493.938 392.5 491.5C394.776 489.18 396.368 487.868 399.5 487C402.322 486.218 403 486 405.5 486.5C406.784 486.757 407.339 487.071 408.5 488C409.938 489.151 411.562 491.349 413 492.5C414.161 493.429 415.019 493.868 416.5 494C418.85 494.21 422 491.5 422 491.5C422 491.5 423.468 488.454 425 487C426.775 485.316 428.213 484.87 430.5 484C433.292 482.938 435.247 483.659 438 482.5C440.595 481.407 444 478.5 444 478.5C444 478.5 447.478 476.222 449.5 474.5C451.602 472.709 452.622 471.525 454.5 469.5C456.761 467.062 457.804 465.497 460 463C461.917 460.82 462.99 459.594 465 457.5C466.53 455.906 467.134 454.682 469 453.5C471.243 452.079 472.855 451.741 475.5 451.5C476.667 451.394 478.5 451.5 478.5 451.5L483.5 446L492.5 457.5L485.5 462C485.5 462 484.974 463.561 484.5 464.5C483.374 466.733 482.397 467.87 480.5 469.5C478.773 470.984 477.507 471.424 475.5 472.5C473.036 473.821 471.596 474.463 469 475.5C466.133 476.645 464.429 477.024 461.5 478C458.571 478.976 456.804 479.208 454 480.5C451.536 481.635 450.117 482.304 448 484C445.734 485.815 443 489.5 443 489.5C443 489.5 440.323 494.073 438 496.5C436.565 497.999 435.673 498.771 434 500C432.165 501.348 429.636 500.813 429 503C428.615 504.326 428.565 505.484 429.5 506.5C430.212 507.274 432 507.5 432 507.5C432 507.5 440.081 509.815 445 508.5C449.761 507.227 451.918 504.885 455.5 501.5C458.736 498.442 459.697 495.959 462.5 492.5C464.42 490.13 465.424 488.734 467.5 486.5C470.227 483.565 471.884 482.019 475 479.5C477.613 477.388 478.972 475.955 482 474.5C484.226 473.43 485.563 472.901 488 472.5C490.505 472.088 492.405 471.067 494.5 472.5C496.159 473.635 496.457 475.064 497 477C497.633 479.256 497.214 480.667 497 483C496.593 487.434 495.328 489.75 494 494C492.766 497.949 491.889 500.103 490.5 504C488.965 508.306 487.912 510.652 486.5 515C484.686 520.587 483.611 523.732 482.5 529.5C479.657 544.265 482.955 552.964 483 568C483.013 572.491 483.772 574.874 482 579C480.688 582.055 478.641 582.957 477.5 586C476 590 476 616.5 477.5 618.5C478.086 619.281 478.961 619.186 479.5 620C480.156 620.99 480 623 480 623C480 623 484.589 622.675 487.5 623C504.666 624.918 515.714 653.5 517.5 655.5C531.891 671.611 535.952 684.901 553.5 697.5C557.636 700.47 559.871 702.38 564.5 704.5C568.599 706.377 571.314 706.328 575.5 708C580.366 709.943 583.386 710.755 587.5 714C592.193 717.701 597 726 597 726L602.5 736C602.5 736 603.753 730.827 604.5 727.5C606.766 717.412 607.271 711.596 609.5 701.5C611.757 691.28 616 675.5 616 675.5C616 675.5 610.249 674.229 606.5 674C601.223 673.678 598.24 674.301 593 675C587.876 675.684 580 677.5 580 677.5C580 677.5 587.898 673.024 592.5 669.5C597.109 665.97 599.656 663.851 603.5 659.5C608.735 653.574 610.559 649.356 614.5 642.5C618.852 634.929 621.369 630.652 624.5 622.5C626.626 616.965 627.214 613.654 629 608C630.73 602.524 631.856 599.503 633.5 594C635.412 587.6 636.801 584.07 638 577.5C638.917 572.472 639.5 564.5 639.5 564.5C639.5 564.5 636.703 560.575 635 558C632.968 554.927 631.496 553.367 630 550C628.595 546.838 627.599 544.959 627.5 541.5C627.39 537.665 628.331 535.454 630 532C631.581 528.73 635.5 524.5 635.5 524.5C635.5 524.5 628.917 521.798 625 519.5C621.73 517.582 619.909 516.432 617 514C614.246 511.697 613.084 509.992 610.5 507.5C607.815 504.91 603.5 501 603.5 501C603.5 501 598.404 498.897 595 498C587.426 496.005 582.825 496.831 575 496.5C564.855 496.071 551.92 498.482 549 496.5C547.054 495.18 545.95 494.351 544.5 492.5C542.885 490.437 542.27 489.004 541.5 486.5C540.122 482.021 541.694 479.182 541.5 474.5C541.305 469.802 540.5 462.5 540.5 462.5C540.5 462.5 538.273 459.802 537 457.961C535.959 456.457 535.202 455.689 534.5 454C533.882 452.513 533.542 451.61 533.5 450C533.453 448.2 533.47 446.976 534.5 445.5C535.953 443.418 541 441.5 541 441.5V440.5C541 440.5 537.252 440.802 535.5 439.5C534.497 438.754 533.5 437 533.5 437C533.5 437 532.698 432.02 533.5 429C533.994 427.141 534.257 425.967 535.5 424.5C536.586 423.218 539 422 539 422C539 422 538.822 419.385 538 418C537.081 416.452 534.5 415 534.5 415C534.5 415 528.35 414.377 524.5 413.5C522.329 413.006 520.97 413.038 519 412C516.313 410.584 514.777 409.256 513.5 406.5C511.94 403.134 512.986 400.674 513.5 397C514.124 392.535 515.02 390.05 517 386C518.309 383.322 519.529 382.093 521 379.5C523.154 375.702 526 369.5 526 369.5C526 369.5 514.129 368.868 507 366.5C500.785 364.435 497.109 362.381 491.5 359C485.513 355.39 482.245 353.635 477.5 348.5C475.327 346.148 474.121 344.762 472.5 342C470.683 338.904 469.133 337.087 469 333.5C468.844 329.297 470.527 326.902 473 323.5C475.279 320.365 477.488 318.939 480.5 316.5C487.151 311.114 491.038 308.691 498.5 304.5C506.659 299.917 511.728 298.259 520.5 295C527.62 292.355 539 289 539 289C539 289 542.016 277.782 545 271C548.062 264.039 550.69 260.582 554.5 254C558.492 247.102 560.549 243.112 565 236.5C569.362 230.021 570.631 225.021 577 220.5C581.495 217.309 584.729 216.613 590 215C597.552 212.688 602.131 212.677 610 212C620.7 211.08 626.788 211.23 637.5 212C645.351 212.564 649.719 213.314 657.5 214.5C665.149 215.665 669.481 216.177 677 218C685.762 220.124 690.996 220.849 699 225C706.315 228.794 710.1 231.747 716 237.5C720.869 242.247 723.207 245.355 727 251C730.607 256.368 732.136 259.701 735 265.5C737.555 270.673 739.046 273.571 741 279C743.325 285.462 745.5 296 745.5 296C745.5 296 755.927 299.158 762.5 301.5C770.014 304.178 774 305 781.5 309C786.496 311.665 789.055 314.164 792 319C794.666 323.377 795.529 326.396 796 331.5C796.397 335.795 795.973 338.298 795 342.5C794.206 345.929 793.618 347.874 792 351C788.255 358.236 784.227 360.246 778 365.5C769.968 372.278 755 381 755 381C755 381 758.03 389.088 759 394.5C759.761 398.746 760.189 401.191 760 405.5C759.809 409.862 759.104 412.276 758 416.5C756.688 421.52 753.5 429 753.5 429C753.5 429 758.32 435.433 762 439C765.088 441.993 766.902 443.645 770.5 446C775.692 449.399 779.315 450.011 785 452.5C796.627 457.59 803.459 459.718 815 465C826.513 470.27 844 479.5 844 479.5V739H381C381 739 398.1 713.999 397.5 712.5C395.651 707.878 391.761 707.142 389 703C388 701.5 405.063 688.817 412.5 677.5C414.376 674.646 417 670 417 670L410.5 663.5C410.5 663.5 404.5 665.5 402 665C399.5 664.5 397.755 662.495 396 660C394.54 657.924 394.064 656.475 393.5 654C392.762 650.763 393.5 645.5 393.5 645.5L380.5 628.5L374.5 619.5L368.5 607.5L361.5 596L356 589C356 589 351.551 595.784 349 600.5C346.17 605.732 345.066 609.133 342.5 614.5C340.315 619.07 338.805 621.489 336.5 626C334.116 630.666 332.797 633.291 330.5 638C327.284 644.595 322.5 655 322.5 655L305 651.5C305 651.5 297.862 654.925 293.5 657.5C290.095 659.51 288.384 660.955 285 663C282.305 664.628 280.399 664.961 278 667C276.948 667.894 275.5 669.5 275.5 669.5C275.5 669.5 274.576 674.465 273.5 677.5C272.42 680.546 271.825 682.333 270 685C268.516 687.168 267.385 688.17 265.5 690C262.809 692.613 261.002 693.752 258 696C253.838 699.116 251.43 700.779 247 703.5C241.343 706.975 238.14 708.975 232 711.5C225.6 714.132 221.8 715.219 215 716.5C207.686 717.878 203.422 718.03 196 718C189.553 717.974 185.885 717.392 179.5 716.5C173.731 715.694 170.616 714.546 165 713C159.284 711.427 155.879 710.995 150.5 708.5C145.487 706.175 142.745 704.538 138.5 701C134.786 697.905 132.676 696.026 130 692C127.727 688.581 126.685 686.43 125.5 682.5C124.304 678.534 124.285 676.132 124 672C123.731 668.104 123.494 665.872 124 662C124.497 658.196 125.07 656.06 126.5 652.5C127.738 649.42 128.691 647.783 130.5 645C131.416 643.592 133 641.5 133 641.5C133 641.5 127.421 643.413 124 645C120.989 646.396 119.167 647.023 116.5 649C113.838 650.973 112.273 652.089 110 654.5C108.198 656.411 107.484 657.832 106 660C104.175 662.667 103.616 664.466 102.5 667.5C101.519 670.168 100.956 671.694 100.5 674.5C99.8732 678.355 99.5242 680.719 100.5 684.5C101.199 687.207 102.079 688.593 103.5 691C105.686 694.703 107.344 696.579 110.5 699.5C113.166 701.967 114.925 703.067 118 705C121.18 706.998 123.106 707.891 126.5 709.5C130.694 711.489 133.159 712.357 137.5 714C141.947 715.683 144.47 716.554 149 718C154.417 719.729 157.471 720.672 163 722C166.686 722.886 177.709 724.423 181.5 724.44C195 724.5 181.5 724.44 196 724.5C201.362 724.522 212.784 723.242 218 722C223.95 720.584 227.197 719.43 233 717.5C238.92 715.531 242.413 714.777 248 712C252.949 709.54 255.601 707.845 260 704.5C263.305 701.987 264.886 700.245 268 697.5C271.528 694.39 273.664 692.814 277 689.5C280.532 685.991 282.366 683.868 285.5 680C288.844 675.873 290.417 673.325 293.5 669C296.267 665.118 297.929 663.014 300.5 659C302.343 656.124 305 651.5 305 651.5L322.5 655C322.5 655 318.295 662.653 315.5 667.5C313.576 670.836 312.502 672.71 310.5 676C307.487 680.951 305.968 683.856 302.5 688.5C299.269 692.827 297.168 695.036 293.5 699C289.749 703.054 287.566 705.262 283.5 709C279.727 712.469 277.611 714.438 273.5 717.5C268.503 721.221 265.504 723.081 260 726C252.728 729.856 248.357 731.548 240.5 734C232.676 736.442 228.11 737.312 220 738.5C213.406 739.466 209.653 739.61 203 740C189.745 740.778 182.179 741.618 169 740C165.272 739.542 163.194 739.177 159.5 738.5C153.396 737.381 149.956 736.742 144 735C138.428 733.37 135.351 732.253 130 730C125.412 728.068 122.843 726.934 118.5 724.5C115.286 722.699 113.581 721.519 110.5 719.5C107.329 717.422 105.425 716.413 102.5 714C99.3048 711.364 97.6282 709.702 95 706.5C91.7693 702.564 90.1419 700.119 88 695.5C86.1818 691.579 85.1395 689.275 84.5 685C83.9511 681.331 84.1199 679.19 84.5 675.5C84.8884 671.729 85.2326 669.573 86.5 666C87.6676 662.708 88.6937 660.99 90.5 658C92.2372 655.125 93.388 653.613 95.5 651C98.0187 647.884 99.5638 646.226 102.5 643.5C106.793 639.514 109.665 637.807 114.5 634.5C119.062 631.38 121.671 629.687 126.5 627C130.697 624.665 133.334 623.89 137.5 621.5C141.54 619.182 147.5 615 147.5 615L149 610.5L149.5 605.5L154 599V591C154 591 155.926 588.074 157.5 586.5C159.074 584.926 162 583 162 583C162 583 161.398 580.151 162 578.5C162.617 576.809 165 575 165 575C165 575 165.5 569.5 164.5 568.5C163 567 156.373 569.997 152.5 567C150.739 565.638 149.675 564.622 149 562.5C148.408 560.639 148.526 559.394 149 557.5C149.617 555.03 150.264 554.362 152 552.5C153.811 550.557 155.88 548.937 158.5 548.5C161.5 548 162.5 548 165.5 549C167.612 549.704 170 552.5 170 552.5C170 552.5 173.698 554.73 176 554C177.716 553.456 179.5 551 179.5 551C179.5 551 179.881 548.813 179.5 547.5C178.922 545.506 177.5 545 176 543.5C174.122 541.622 172.734 540.552 172 538C171.406 535.936 172 532.5 172 532.5C172 532.5 168.817 530.543 167 529C164.577 526.942 163.443 525.516 161.5 523C159.514 520.428 158.575 519.067 157.5 516C156.651 513.576 156.249 512.056 156 509.5C155.564 505.03 155.238 502.426 156 498C156.483 495.198 156.931 493.635 158 491C159.084 488.328 159.816 486.84 161.5 484.5C163.596 481.586 165.295 480.36 168 478C170.943 475.432 174.45 475.584 176 472C177.24 469.132 174.659 466.822 176 464C177.309 461.245 182 459 182 459V456.5C182 456.5 173.452 456.453 168 456C158.531 455.212 153.074 454.819 144 452C137.315 449.924 132.401 449.997 127.5 445C125.338 442.796 125.091 442.63 123 438.5C122.211 436.942 120 430.5 120 430.5C120 430.5 116.374 430.092 115 428.5C113.448 426.702 113.613 424.014 114 422.5C115.045 418.407 119.163 418.266 123 416.5C127.045 414.638 129.627 414.339 134 413.5C144.739 411.44 162 413.5 162 413.5C162 413.5 160.5 407.393 162 404C163.173 401.345 167 398.5 167 398.5L166.5 394C166.5 394 161.457 391.175 159 388.5C155.985 385.218 155.229 382.608 153.5 378.5C151.607 374.001 150 366.5 150 366.5Z" fill="black"/>
</svg>
